<?xml version="1.0" encoding="UTF-8"?>
<svg version="1.1" xmlns="http://www.w3.org/2000/svg" width="32" height="32">
<path d="M0 0 C13.33333333 0 13.33333333 0 19.0625 0.87890625 C21.2380481 1.01487801 22.92303204 0.62587204 25 0 C26.03159626 3.09478879 25.97482862 4.52631393 25.5625 7.6875 C25.46066406 8.49574219 25.35882812 9.30398438 25.25390625 10.13671875 C25.17011719 10.75160156 25.08632813 11.36648438 25 12 C24.67 12 24.34 12 24 12 C23.67 9.69 23.34 7.38 23 5 C21.19292419 6.80707581 21.57692402 9.55383475 21.375 12 C21.23191406 13.6396875 21.23191406 13.6396875 21.0859375 15.3125 C21.04339844 16.6428125 21.04339844 16.6428125 21 18 C21.33 18.33 21.66 18.66 22 19 C21.91062197 20.52519276 21.75462854 22.04681929 21.5625 23.5625 C21.46066406 24.38878906 21.35882812 25.21507813 21.25390625 26.06640625 C21.17011719 26.70449219 21.08632813 27.34257812 21 28 C18.06333774 28.67055285 15.12577641 29.33659053 12.1875 30 C11.35412109 30.19078125 10.52074219 30.3815625 9.66210938 30.578125 C8.45844727 30.84882812 8.45844727 30.84882812 7.23046875 31.125 C6.49207764 31.29257812 5.75368652 31.46015625 4.99291992 31.6328125 C3 32 3 32 0 32 C0 21.44 0 10.88 0 0 Z M10 10 C10 10.66 10 11.32 10 12 C10.66 11.67 11.32 11.34 12 11 C11.34 10.67 10.68 10.34 10 10 Z M17 11 C18 14 18 14 18 14 Z M16 14 C17 17 17 17 17 17 Z " fill="#ED9FD6" transform="translate(5,0)"/>
<path d="M0 0 C13.5 0 13.5 0 18 1 C18 1.33 18 1.66 18 2 C12.39 2 6.78 2 1 2 C1 11.24 1 20.48 1 30 C6.13323705 27.70238465 6.13323705 27.70238465 11.26098633 25.39257812 C11.90318115 25.10833984 12.54537598 24.82410156 13.20703125 24.53125 C14.18893433 24.09135742 14.18893433 24.09135742 15.19067383 23.64257812 C17 23 17 23 20 23 C19.484375 22.38125 18.96875 21.7625 18.4375 21.125 C16.08988765 16.02149489 17.12463357 11.13437658 18.60546875 5.83203125 C19.3125 3.9375 19.3125 3.9375 21 1 C23.1875 0.0625 23.1875 0.0625 25 0 C26.03159626 3.09478879 25.97482862 4.52631393 25.5625 7.6875 C25.46066406 8.49574219 25.35882812 9.30398438 25.25390625 10.13671875 C25.17011719 10.75160156 25.08632813 11.36648438 25 12 C24.67 12 24.34 12 24 12 C23.67 9.69 23.34 7.38 23 5 C21.19292419 6.80707581 21.57692402 9.55383475 21.375 12 C21.23191406 13.6396875 21.23191406 13.6396875 21.0859375 15.3125 C21.04339844 16.6428125 21.04339844 16.6428125 21 18 C21.33 18.33 21.66 18.66 22 19 C21.91062197 20.52519276 21.75462854 22.04681929 21.5625 23.5625 C21.46066406 24.38878906 21.35882812 25.21507813 21.25390625 26.06640625 C21.17011719 26.70449219 21.08632813 27.34257812 21 28 C18.06333774 28.67055285 15.12577641 29.33659053 12.1875 30 C11.35412109 30.19078125 10.52074219 30.3815625 9.66210938 30.578125 C8.45844727 30.84882812 8.45844727 30.84882812 7.23046875 31.125 C6.49207764 31.29257812 5.75368652 31.46015625 4.99291992 31.6328125 C3 32 3 32 0 32 C0 21.44 0 10.88 0 0 Z " fill="#060406" transform="translate(5,0)"/>
<path d="M0 0 C13.5 0 13.5 0 18 1 C18 1.33 18 1.66 18 2 C12.39 2 6.78 2 1 2 C1 11.24 1 20.48 1 30 C2.32 29.34 3.64 28.68 5 28 C5.99 28.33 6.98 28.66 8 29 C3.375 32 3.375 32 0 32 C0 21.44 0 10.88 0 0 Z " fill="#140D12" transform="translate(5,0)"/>
<path d="M0 0 C1.32 0.33 2.64 0.66 4 1 C3.67 4.63 3.34 8.26 3 12 C2.67 12 2.34 12 2 12 C1.67 9.69 1.34 7.38 1 5 C-0.98 5.99 -0.98 5.99 -3 7 C-1.125 1.125 -1.125 1.125 0 0 Z " fill="#0B070A" transform="translate(27,0)"/>
<path d="M0 0 C0.33 0 0.66 0 1 0 C1 4.62 1 9.24 1 14 C2.32 13.34 3.64 12.68 5 12 C5.99 12.33 6.98 12.66 8 13 C3.375 16 3.375 16 0 16 C0 10.72 0 5.44 0 0 Z " fill="#2B1D27" transform="translate(5,16)"/>
<path d="M0 0 C1.7074998 1.28062485 3.37373596 2.61767557 5 4 C5 4.66 5 5.32 5 6 C3.35 6.66 1.7 7.32 0 8 C0 5.36 0 2.72 0 0 Z " fill="#140D12" transform="translate(12,18)"/>
<path d="M0 0 C0.66 0 1.32 0 2 0 C3.38938077 1.96147874 4.7260411 3.96166576 6 6 C4.68 6 3.36 6 2 6 C1.01 6.495 1.01 6.495 0 7 C0 4.69 0 2.38 0 0 Z " fill="#22161F" transform="translate(13,6)"/>
</svg>
